<?xml version="1.0" encoding="UTF-8"?>
<svg width="560px" height="366px" viewBox="0 0 560 366" version="1.1" xmlns="http://www.w3.org/2000/svg" xmlns:xlink="http://www.w3.org/1999/xlink">
    <!-- Generator: Sketch 53.2 (72643) - https://sketchapp.com -->
    <title>circles-disable</title>
    <desc>Created with Sketch.</desc>
    <g id="Page-1" stroke="none" stroke-width="1" fill="none" fill-rule="evenodd">
        <g id="Home" transform="translate(-732.000000, -1198.000000)">
            <g id="circles-disable" transform="translate(732.000000, 1198.000000)">
                <g id="circles">
                    <rect id="Rectangle-Copy-9" fill="#FBFBFB" x="0" y="0" width="560" height="366"></rect>
                    <g id="Group-9" transform="translate(166.000000, 68.000000)">
                        <path d="M111.998046,14.6765222 C56.1035734,14.6765222 10.6289782,60.3545275 10.6289782,116.500981 C10.6289782,172.645473 56.1035734,218.323478 111.998046,218.323478 C167.896427,218.323478 213.369068,172.645473 213.369068,116.500981 C213.369068,60.3545275 167.896427,14.6765222 111.998046,14.6765222 M111.998046,229 C50.2409269,229 0,178.53238 0,116.500981 C0,54.4676199 50.2409269,4 111.998046,4 C173.757119,4 224,54.4676199 224,116.500981 C224,178.53238 173.757119,229 111.998046,229" id="Fill-1" fill="#070635"></path>
                        <path d="M196.946832,47.593049 C160.422209,4.64262609 88.3303333,-1.13326183 45.6570538,35.6322215 C2.98572814,72.3957383 -2.7741193,145.240364 33.7524573,188.192753 C70.2770801,231.145143 146.18085,232.979975 188.852175,196.216459 C231.525455,159.450975 233.473409,90.5454386 196.946832,47.593049 M29.9952705,191.429768 C-10.360784,143.973877 -4.8334406,72.3190411 42.312122,31.6990326 C57.045843,19.006632 70.7987488,5.86191465 88.5530682,2.05852097 C127.613743,-6.31327163 173.26073,11.4726086 201.004906,44.0984107 C241.360961,91.5543015 235.833618,163.209137 188.686101,203.829146 C141.540539,244.447188 70.3513251,238.885658 29.9952705,191.429768" id="Fill-3" fill="#0059B2"></path>
                        <path d="M115.5,32.3011166 C66.8416977,32.3011166 27.2536619,72.0902069 27.2536619,121 C27.2536619,169.907832 66.8416977,209.698883 115.5,209.698883 C164.158302,209.698883 203.746338,169.907832 203.746338,121 C203.746338,72.0902069 164.158302,32.3011166 115.5,32.3011166 M115.5,219 C61.7378437,219 18,175.03786 18,121 C18,66.9621403 61.7378437,23 115.5,23 C169.262156,23 213,66.9621403 213,121 C213,175.03786 169.262156,219 115.5,219" id="Fill-5" fill="#070635"></path>
                        <path d="M115.000979,213.162134 C63.463945,213.162134 21.6828766,171.317861 21.6828766,119.700445 C21.6828766,68.0810669 63.463945,26.2367939 115.000979,26.2367939 C166.538013,26.2367939 208.317123,68.0810669 208.317123,119.700445 C208.317123,171.317861 166.538013,213.162134 115.000979,213.162134 M113.20527,13 C92.933541,13 64.90717,15.7262029 46.4859799,28.7178347 C22.6169584,45.5496862 10,77.1010722 10,119.961297 C10,178.704106 54.3679072,223 113.20527,223 C173.090294,223 220,177.739147 220,119.961297 C220,60.9831328 172.09159,13 113.20527,13" id="Fill-7" fill="#2FA3D1"></path>
                    </g>
                </g>
                <rect id="Rectangle-Copy" fill="#000000" style="mix-blend-mode: color;" x="41" y="31" width="478" height="304"></rect>
            </g>
        </g>
    </g>
</svg>