<?xml version="1.0" encoding="UTF-8"?>
<svg width="12px" height="11px" viewBox="0 0 12 11" version="1.1" xmlns="http://www.w3.org/2000/svg" xmlns:xlink="http://www.w3.org/1999/xlink">
    <!-- Generator: Sketch 53.2 (72643) - https://sketchapp.com -->
    <title>Group 3</title>
    <desc>Created with Sketch.</desc>
    <defs>
        <polygon id="path-1" points="0.0001 0.0001 11.066 0.0001 11.066 10.3921 0.0001 10.3921"></polygon>
    </defs>
    <g id="Page-1" stroke="none" stroke-width="1" fill="none" fill-rule="evenodd">
        <g id="Home" transform="translate(-807.000000, -1918.000000)">
            <g id="Group-3" transform="translate(807.000000, 1918.000000)">
                <mask id="mask-2" fill="white">
                    <use xlink:href="#path-1"></use>
                </mask>
                <g id="Clip-2"></g>
                <path d="M5.2191,10.1488 L5.3891,10.3308 C5.4681,10.4128 5.5981,10.4128 5.6761,10.3308 L5.8471,10.1488 L10.1211,5.6098 C10.7281,4.9968 11.0661,4.1608 11.0661,3.2638 C11.0661,1.4648 9.6801,-0.0002 7.9751,-0.0002 C7.0841,-0.0002 6.2571,0.4028 5.6821,1.0758 C5.6031,1.1678 5.4631,1.1678 5.3841,1.0758 C4.8091,0.4028 3.9831,-0.0002 3.0911,-0.0002 C1.3861,-0.0002 0.0001,1.4648 0.0001,3.2638 C0.0001,4.1098 0.3051,4.9118 0.8611,5.5228 L5.2191,10.1488 Z" id="Fill-1" fill="#E82460" mask="url(#mask-2)"></path>
            </g>
        </g>
    </g>
</svg>