<?xml version="1.0" encoding="UTF-8"?>
<svg width="24px" height="24px" viewBox="0 0 24 24" version="1.1" xmlns="http://www.w3.org/2000/svg" xmlns:xlink="http://www.w3.org/1999/xlink">
    <!-- Generator: Sketch 53.2 (72643) - https://sketchapp.com -->
    <title>Group 3</title>
    <desc>Created with Sketch.</desc>
    <defs>
        <polygon id="path-1" points="0 0 24 0 24 24 0 24"></polygon>
    </defs>
    <g id="Page-1" stroke="none" stroke-width="1" fill="none" fill-rule="evenodd">
        <g id="Home" transform="translate(-148.000000, -1818.000000)">
            <g id="Group-3" transform="translate(148.000000, 1818.000000)">
                <mask id="mask-2" fill="white">
                    <use xlink:href="#path-1"></use>
                </mask>
                <g id="Clip-2"></g>
                <path d="M20.4519014,20.4506667 L16.8924692,20.4506667 L16.8924692,14.8813333 C16.8924692,13.5526667 16.8698019,11.844 15.0430845,11.844 C13.1903664,11.844 12.9083586,13.292 12.9083586,14.786 L12.9083586,20.4506667 L9.35292647,20.4506667 L9.35292647,8.99733333 L12.7650213,8.99733333 L12.7650213,10.5633333 L12.8136893,10.5633333 C13.2883691,9.66266667 14.4497347,8.71333333 16.1817828,8.71333333 C19.7858829,8.71333333 20.4519014,11.0846667 20.4519014,14.1693333 L20.4519014,20.4506667 Z M5.33881497,7.43266667 C4.19544987,7.43266667 3.27342426,6.508 3.27342426,5.368 C3.27342426,4.22866667 4.19544987,3.304 5.33881497,3.304 C6.47751326,3.304 7.40220562,4.22866667 7.40220562,5.368 C7.40220562,6.508 6.47751326,7.43266667 5.33881497,7.43266667 L5.33881497,7.43266667 Z M3.55609878,20.4506667 L7.1195311,20.4506667 L7.1195311,8.99733333 L3.55609878,8.99733333 L3.55609878,20.4506667 Z M22.2246174,0 L1.77071585,0 C0.794022056,0 0,0.774666667 0,1.73066667 L0,22.2686667 C0,23.224 0.794022056,24 1.77071585,24 L22.2246174,24 C23.2033112,24 24,23.224 24,22.2686667 L24,1.73066667 C24,0.774666667 23.2033112,0 22.2246174,0 L22.2246174,0 Z" id="Fill-1" fill="#007AB5" mask="url(#mask-2)"></path>
            </g>
        </g>
    </g>
</svg>