<?xml version="1.0" encoding="UTF-8"?>
<svg width="560px" height="366px" viewBox="0 0 560 366" version="1.1" xmlns="http://www.w3.org/2000/svg" xmlns:xlink="http://www.w3.org/1999/xlink">
    <!-- Generator: Sketch 64 (93537) - https://sketch.com -->
    <title>logo-correcta</title>
    <desc>Created with Sketch.</desc>
    <defs>
        <linearGradient x1="14.3246598%" y1="34.1608769%" x2="86.9801846%" y2="67.935184%" id="linearGradient-1">
            <stop stop-color="#0C916F" offset="0%"></stop>
            <stop stop-color="#005942" offset="100%"></stop>
        </linearGradient>
        <polygon id="path-2" points="0.000281455354 0.0474337336 60.2907439 0.0474337336 60.2907439 74 0.000281455354 74"></polygon>
    </defs>
    <g id="Page-1" stroke="none" stroke-width="1" fill="none" fill-rule="evenodd">
        <g id="Home-Copy-3" transform="translate(-145.000000, -745.000000)">
            <g id="logo-correcta" transform="translate(145.000000, 745.000000)">
                <rect id="Rectangle-Copy-6" fill="url(#linearGradient-1)" fill-rule="nonzero" transform="translate(280.000000, 183.000000) rotate(-180.000000) translate(-280.000000, -183.000000) " x="0" y="0" width="560" height="366"></rect>
                <g id="Group-20" transform="translate(103.000000, 146.000000)">
                    <g id="Group-3">
                        <mask id="mask-3" fill="white">
                            <use xlink:href="#path-2"></use>
                        </mask>
                        <g id="Clip-2"></g>
                        <path d="M56.138881,15.9500471 C56.169381,15.5299882 56.2071429,15.1113804 56.2528929,14.6927725 C56.2848452,14.3996745 56.3189762,14.105851 56.3581905,13.8134784 C56.4032143,13.4710471 56.4584048,13.1293412 56.5135952,12.7876353 C56.5680595,12.4524588 56.6188929,12.1165569 56.6827976,11.7821059 C56.7103929,11.6399098 56.74525,11.4977137 56.7742976,11.3555176 C56.9602024,10.444302 57.1795119,9.53816471 57.4344048,8.63783137 C57.4663571,8.52538039 57.4954048,8.41220392 57.5280833,8.30047843 C57.6689643,7.82020392 57.8214643,7.34210588 57.9826786,6.86545882 C58.0189881,6.7559098 58.05675,6.64636078 58.0945119,6.53753725 C58.2680714,6.03767451 58.4481667,5.53998824 58.6427857,5.04520392 C59.1184405,3.83436078 59.646381,2.63367451 60.2520238,1.44894902 C60.3144762,1.32634118 60.3006786,1.17834118 60.2157143,1.06879216 C60.13075,0.958517647 59.9891429,0.908458824 59.8533452,0.935301961 C54.6763333,2.00830196 49.8566071,3.90400784 45.5183452,6.44612549 C45.4762262,6.47079216 45.433381,6.49400784 45.3919881,6.51867451 C44.9439286,6.78275294 44.503131,7.05698824 44.0659643,7.33485098 C43.9766429,7.39143922 43.8865952,7.44657647 43.798,7.5038902 C43.3906071,7.76724314 42.98975,8.03785098 42.5917976,8.31281176 C42.4777857,8.39116471 42.3645,8.46806667 42.2512143,8.5471451 C41.8735952,8.8134 41.5017857,9.08545882 41.132881,9.36187059 C41.0065238,9.4569098 40.8794405,9.55194902 40.7538095,9.64771373 C40.3994286,9.91904706 40.050131,10.1947333 39.7044643,10.4762235 C39.5715714,10.5835961 39.4394048,10.6916941 39.3079643,10.8012431 C38.9724643,11.0798314 38.6413214,11.3620471 38.3152619,11.6493412 C38.1809167,11.7675961 38.0480238,11.8865765 37.915131,12.0062824 C37.5970595,12.292851 37.2818929,12.5823216 36.9718095,12.8768706 C36.8389167,13.0038314 36.7082024,13.1329686 36.5767619,13.2613804 C36.2732143,13.5573804 35.9718452,13.8548314 35.6770119,14.1588118 C35.5492024,14.2901255 35.4250238,14.4250667 35.2986667,14.5585569 C35.0067381,14.8661647 34.7162619,15.1752235 34.4337738,15.4908118 C34.316131,15.6221255 34.202119,15.7577922 34.0852024,15.8912824 C33.8019881,16.214851 33.5187738,16.5391451 33.245,16.8706941 C33.1462381,16.9904 33.0518333,17.1137333 32.9537976,17.2348902 C32.6698571,17.5860275 32.3859167,17.9378902 32.112869,18.2977333 C32.0722024,18.3506941 32.0351667,18.4043804 31.9952262,18.4573412 C31.0795,19.6732627 30.229131,20.9348902 29.4433929,22.2349686 C29.3395476,22.4069098 29.230619,22.5766745 29.1282262,22.7507922 C28.9517619,23.0533216 28.7840119,23.3602039 28.6140833,23.6670863 C28.487,23.8963412 28.3570119,24.1241451 28.2335595,24.3555765 C28.0796071,24.6443216 27.9350952,24.9374196 27.7876786,25.2297922 C27.659869,25.4844392 27.529881,25.7383608 27.4064286,25.9966353 C27.270631,26.2795765 27.1420952,26.5661451 27.0128333,26.8519882 C26.889381,27.1240471 26.7652024,27.3968314 26.6475595,27.6717922 C26.5277381,27.9532824 26.4122738,28.2376745 26.2982619,28.5213412 C26.1835238,28.8064588 26.0695119,29.0915765 25.9605833,29.3795961 C25.8538333,29.6596353 25.7521667,29.9425765 25.6519524,30.2255176 C25.5466548,30.5222431 25.4442619,30.8204196 25.3455,31.1193216 C25.2525476,31.3986353 25.1639524,31.6801255 25.0768095,31.9616157 C24.9824048,32.269949 24.891631,32.5797333 24.8037619,32.8902431 C24.7246071,33.1688314 24.647631,33.4481451 24.5750119,33.7281843 C24.4915,34.0474 24.4137976,34.3680667 24.3375476,34.6901843 C24.2729167,34.9665961 24.2075595,35.2437333 24.1472857,35.5223216 C24.0768452,35.8531451 24.0122143,36.1861451 23.9490357,36.5191451 C23.8974762,36.7926549 23.8444643,37.0654392 23.7979881,37.3396745 C23.7391667,37.6857333 23.6890595,38.0339686 23.6389524,38.3822039 C23.6011905,38.6484588 23.5597976,38.9125373 23.5263929,39.1802431 C23.4806429,39.5487922 23.4457857,39.9202431 23.4094762,40.2916941 C23.3847857,40.5412627 23.3564643,40.7893804 23.3368571,41.0396745 C23.3034524,41.4532039 23.283119,41.8696353 23.2627857,42.2860667 C23.2518929,42.4971843 23.2351905,42.7075765 23.2279286,42.9186941 C23.2061429,43.5484196 23.1974286,44.1788706 23.2039643,44.812949 C23.2105,45.4673412 23.2337381,46.1195569 23.2715,46.7688706 C23.2852976,47.0097333 23.3107143,47.2484196 23.328869,47.4885569 C23.359369,47.8941059 23.3869643,48.3003804 23.4298095,48.7037529 C23.4617619,49.0077333 23.5060595,49.3088118 23.5452738,49.6113412 C23.5873929,49.9457922 23.625881,50.2802431 23.6767143,50.6125176 C23.729,50.9527725 23.7929048,51.2901255 23.8539048,51.6282039 C23.9061905,51.9184 23.9533929,52.2093216 24.0114881,52.4973412 C24.0848333,52.8622627 24.17125,53.2250078 24.2547619,53.5877529 C24.3128571,53.8424 24.3680476,54.0977725 24.4312262,54.3509686 C24.5285357,54.7391059 24.6374643,55.1236157 24.7463929,55.5081255 C24.8088452,55.7301255 24.8676667,55.9521255 24.9344762,56.1726745 C25.0572024,56.5804 25.1908214,56.984498 25.326619,57.3871451 C25.3905238,57.5786745 25.45225,57.7709294 25.5190595,57.9602824 C25.669381,58.3854196 25.829869,58.8062039 25.9932619,59.2255373 C26.0571667,59.3880471 26.1188929,59.5512824 26.1835238,59.7123412 C26.3621667,60.1519882 26.55025,60.5865569 26.7441429,61.0196745 C26.8051429,61.1553412 26.8646905,61.2924588 26.9271429,61.4274 C27.1348333,61.8786549 27.3526905,62.3241059 27.5763571,62.7673804 C27.6337262,62.8798314 27.6896429,62.9915569 27.7470119,63.1032824 C27.9859286,63.5639686 28.2342857,64.0195765 28.490631,64.4715569 C28.5407381,64.5593412 28.5908452,64.647851 28.6416786,64.7356353 C28.9118214,65.204302 29.1928571,65.6678902 29.4826071,66.1264 C29.5247262,66.1931451 29.5675714,66.2598902 29.6096905,66.3266353 C29.9132381,66.8003804 30.2269524,67.2683216 30.5515595,67.7311843 C30.5842381,67.7776157 30.6169167,67.8240471 30.6503214,67.8712039 C30.9872738,68.3485765 31.335119,68.8194196 31.6938571,69.2830078 C31.716369,69.3127529 31.7396071,69.3410471 31.762119,69.3700667 C32.1332024,69.8481647 32.5151786,70.3182824 32.9087738,70.7811451 C32.9203929,70.7949294 32.9327381,70.8087137 32.9450833,70.822498 C33.3502976,71.2976941 33.7664048,71.7649098 34.1955833,72.2234196 C33.59575,71.7445961 33.0111667,71.2519882 32.4432857,70.7448706 C32.4382024,70.7405176 32.4338452,70.7368902 32.4294881,70.7325373 C31.8674167,70.2312235 31.3220476,69.716851 30.7926548,69.1901451 L30.7527143,69.1509686 C30.2334881,68.6322431 29.7295119,68.1019098 29.2415119,67.5599686 C29.2182738,67.533851 29.1950357,67.5077333 29.1717976,67.4823412 C28.696869,66.9520078 28.2371905,66.4107922 27.7920357,65.8594196 C27.7564524,65.8151647 27.7215952,65.7709098 27.6867381,65.7266549 C27.2575595,65.1912431 26.8429048,64.644949 26.4435,64.089949 C26.3955714,64.0232039 26.3490952,63.9557333 26.3018929,63.8889882 C25.9191905,63.3514 25.5502857,62.8058314 25.1959048,62.2515569 C25.1370833,62.1594196 25.0804405,62.0658314 25.0223452,61.9736941 C24.686119,61.4390078 24.3615119,60.8985176 24.0514286,60.3493216 C23.9831667,60.2274392 23.9185357,60.1041059 23.851,59.981498 C23.56125,59.4547922 23.2794881,58.9237333 23.0137024,58.3846941 C22.9374524,58.2301647 22.8662857,58.0727333 22.7922143,57.9167529 C22.5467619,57.4031059 22.307119,56.8858314 22.0834524,56.361302 C22.002119,56.1697725 21.9273214,55.9746157 21.8488929,55.7816353 C21.6455595,55.2846745 21.4473095,54.7862627 21.2635833,54.2805961 C21.1800714,54.0491647 21.106,53.8141059 21.0268452,53.5812235 C20.8641786,53.1060275 20.7029643,52.6301059 20.5577262,52.1476549 C20.4749405,51.8712431 20.4045,51.5912039 20.32825,51.3133412 C20.2033452,50.8649882 20.0769881,50.4173608 19.9680595,49.9639294 C19.8903571,49.6389098 19.8271786,49.3088118 19.7574643,48.9808902 C19.6681429,48.5659098 19.5744643,48.1523804 19.4982143,47.7337725 C19.4292262,47.3499882 19.3769405,46.9611255 19.318119,46.5744392 C19.2622024,46.2029882 19.1975714,45.8337137 19.1510952,45.4600863 C19.093,44.9848902 19.0552381,44.5038902 19.0123929,44.0250667 C18.9869762,43.7326941 18.9506667,43.4432235 18.9310595,43.1494 C18.8787738,42.3716745 18.8475476,41.5895961 18.8395595,40.8031647 C18.7676667,33.8370078 20.4734881,26.8418314 23.7725714,20.5728706 L23.8960238,20.3370863 L23.7057619,20.1513608 C23.3855119,19.8372235 23.0754286,19.5172824 22.771881,19.1929882 C22.6752976,19.0906941 22.5830714,18.985498 22.4886667,18.8824784 C22.2824286,18.6561255 22.0798214,18.4290471 21.8815714,18.1990667 C21.7777262,18.0779098 21.6746071,17.9560275 21.5722143,17.8334196 C21.3863095,17.6092431 21.2040357,17.3828902 21.0246667,17.1550863 C20.9309881,17.0353804 20.8358571,16.9156745 20.743631,16.7952431 C20.5402976,16.5282627 20.3435,16.2576549 20.1510595,15.9863216 C20.0936905,15.9050667 20.0326905,15.8252627 19.9760476,15.7432824 C19.7335,15.3935961 19.4996667,15.0395569 19.2745476,14.6818902 C19.2062857,14.5745176 19.142381,14.4642431 19.0755714,14.3554196 C18.9194405,14.1000471 18.7654881,13.843949 18.6180714,13.584949 C18.5381905,13.4442039 18.4604881,13.3027333 18.3827857,13.1612627 C18.2549762,12.9269294 18.1300714,12.6911451 18.0087976,12.4546353 C17.934,12.3073608 17.8592024,12.1600863 17.7865833,12.0120863 C17.6645833,11.7632431 17.5476667,11.5107725 17.4336548,11.2590275 C17.3741071,11.1269882 17.3116548,10.9956745 17.2542857,10.8629098 C17.0923452,10.4892824 16.9376667,10.1127529 16.7931548,9.73332157 C16.7553929,9.6346549 16.7227143,9.53453725 16.6864048,9.4351451 C16.5796548,9.14494902 16.4758095,8.85330196 16.3792262,8.56020392 C16.3276667,8.40349804 16.2804643,8.24606667 16.2318095,8.08863529 C16.1577381,7.84704706 16.0858452,7.60545882 16.0183095,7.36241961 C15.9718333,7.19483137 15.9268095,7.02796863 15.8839643,6.8596549 C15.8215119,6.6158902 15.7641429,6.3714 15.7082262,6.12618431 C15.6719167,5.96512549 15.6341548,5.80479216 15.60075,5.64228235 C15.5390238,5.34410588 15.4852857,5.04375294 15.4337262,4.7434 C15.4155714,4.63602745 15.3937857,4.53010588 15.3763571,4.42200784 C15.1686667,3.09871373 15.0619167,1.75728235 15.0619167,0.407145098 C15.0619167,0.263498039 14.9762262,0.134360784 14.8433333,0.077772549 C14.7104405,0.0197333333 14.5564881,0.0465764706 14.4511905,0.144517647 C9.94517857,4.31536078 6.39628571,9.27626275 3.93813095,14.6710078 C3.91779762,14.7152627 3.8960119,14.7587922 3.87640476,14.8030471 C3.64475,15.3152431 3.42834524,15.8332431 3.21702381,16.3526941 C3.15021429,16.5166549 3.08122619,16.6791647 3.01586905,16.8431255 C2.83577381,17.3023608 2.66729762,17.764498 2.50245238,18.2295373 C2.41966667,18.4616941 2.33688095,18.693851 2.25772619,18.9274588 C2.11539286,19.3511451 1.98104762,19.7777333 1.8525119,20.2057725 C1.76682143,20.4865373 1.6847619,20.7680275 1.60488095,21.0502431 C1.49377381,21.4478118 1.38702381,21.8461059 1.28753571,22.2465765 C1.20692857,22.5672431 1.13213095,22.8893608 1.0595119,23.2122039 C0.97527381,23.5851059 0.892488095,23.9594588 0.818416667,24.3352627 C0.74725,24.6936549 0.684797619,25.053498 0.623071429,25.4140667 C0.56352381,25.762302 0.501797619,26.1098118 0.450964286,26.4602235 C0.392142857,26.8606941 0.345666667,27.2633412 0.298464286,27.6659882 C0.262154762,27.982302 0.220035714,28.2978902 0.190261905,28.6149294 C0.145964286,29.0814196 0.117642857,29.5500863 0.0893214286,30.0180275 C0.0740714286,30.276302 0.0501071429,30.5345765 0.0399404762,30.792851 C0.00871428571,31.5226941 -0.00508333333,32.2547137 0.00217857143,32.9867333 C0.210595238,53.2757922 14.6029643,70.0288118 35.0016548,73.7266353 L36.5114048,74.0001451 L35.99,73.6112824 L35.7111429,72.8161451 C34.3168571,68.8477137 33.5877619,64.6826745 33.5427381,60.4371059 C33.38225,45.2917725 42.0224643,31.0025176 56.0909524,23.1454588 L56.3000952,23.0286549 L56.2739524,22.7928706 C56.108381,21.3302824 56.0285,19.9765176 56.0285,18.6554 C56.0285,17.986498 56.0517381,17.3212235 56.0880476,16.6566745 C56.101119,16.4201647 56.1214524,16.1851059 56.138881,15.9500471" id="Fill-1" fill="#FFFFFF" mask="url(#mask-3)"></path>
                    </g>
                    <path d="M68,31.2391862 L68,36.7600911 C68,46.2661078 75.8071254,54 85.4040526,54 L103,54 L103,46.7821342 L87.541162,46.7821342 C81.717922,46.7821342 76.9811128,42.0901962 76.9811128,36.3228418 L76.9811128,31.2644816 C76.9811128,25.4971272 81.717922,20.8044664 87.541162,20.8044664 L103,20.8044664 L103,14 L85.4040526,14 C75.8071254,14 68,21.7331695 68,31.2391862" id="Fill-4" fill="#FFFFFF"></path>
                    <path d="M252,31.2391862 L252,36.7600911 C252,46.2661078 259.807125,54 269.404053,54 L287,54 L287,46.7821342 L271.540432,46.7821342 C265.717922,46.7821342 260.981113,42.0901962 260.981113,36.3228418 L260.981113,31.2644816 C260.981113,25.4971272 265.717922,20.8044664 271.540432,20.8044664 L287,20.8044664 L287,14 L269.404053,14 C259.807125,14 252,21.7331695 252,31.2391862" id="Fill-6" fill="#FFFFFF"></path>
                    <path d="M140.439295,30.9323963 L140.439295,38.2741492 C140.439295,43.9743712 135.739615,48.612256 129.963444,48.612256 L126.490277,48.612256 C120.714106,48.612256 116.014427,43.9743712 116.014427,38.2741492 L116.014427,30.9323963 C116.014427,25.2314521 120.714106,20.5942894 126.490277,20.5942894 L129.963444,20.5942894 C135.739615,20.5942894 140.439295,25.2314521 140.439295,30.9323963 M131.714664,14 L124.285336,14 C114.754251,14 107,21.6522934 107,31.0580568 L107,37.9426654 C107,47.3477066 114.754251,55 124.285336,55 L131.714664,55 C141.245749,55 149,47.3477066 149,37.9426654 L149,31.0580568 C149,21.6522934 141.245749,14 131.714664,14" id="Fill-8" fill="#FFFFFF"></path>
                    <path d="M154,27.7276819 L154,55 L162.736166,55 L162.736166,29.088394 C162.736166,24.7585211 166.271654,21.235813 170.616497,21.235813 L179,21.235813 L179,14 L167.77822,14 C160.180463,14 154,20.1581231 154,27.7276819" id="Fill-10" fill="#FFFFFF"></path>
                    <path d="M181,27.7276819 L181,55 L189.736166,55 L189.736166,29.088394 C189.736166,24.7585211 193.271654,21.235813 197.616497,21.235813 L206,21.235813 L206,14 L194.77822,14 C187.181201,14 181,20.1581231 181,27.7276819" id="Fill-12" fill="#FFFFFF"></path>
                    <path d="M216.030121,29.9005512 L216.030121,29.1311475 C216.030121,24.1490394 220.109095,20.0950427 225.122803,20.0950427 L228.877197,20.0950427 C233.891641,20.0950427 237.970615,24.1490394 237.970615,29.1311475 L237.970615,29.9005512 L216.030121,29.9005512 Z M230.457413,13 L223.543323,13 C214.421201,13 207,20.3744269 207,29.4390553 L207,37.5616761 C207,46.6255731 214.421201,54 223.543323,54 L243.325832,54 L243.325832,46.800371 L225.462841,46.800371 C220.26145,46.800371 216.030121,42.5957117 216.030121,37.4271036 L216.030121,37.204035 L247,37.204035 L247,29.4390553 C247,20.3744269 239.578799,13 230.457413,13 L230.457413,13 Z" id="Fill-14" fill="#FFFFFF"></path>
                    <path d="M305.054796,3 L296.161376,3 L296.161376,14.0785517 L289,14.0785517 L289,21.0571954 L296.161376,21.0571954 L296.161376,41.6108337 C296.161376,48.4423308 301.724276,54 308.561481,54 L316.798616,54 L316.798616,46.8453575 L311.397441,46.8453575 C307.900142,46.8453575 305.054796,44.0026872 305.054796,40.5086769 L305.054796,21.0571954 L318,21.0571954 L318,14.0785517 L305.054796,14.0785517 L305.054796,3 Z" id="Fill-16" fill="#FFFFFF"></path>
                    <path d="M351.002214,36.23688 L351.002214,46.8301615 L335.371218,46.8301615 C332.461255,46.8301615 330.092989,44.5168685 330.092989,41.6737313 L330.092989,41.3925894 C330.092989,38.5494521 332.461255,36.23688 335.371218,36.23688 L351.002214,36.23688 Z M345.228044,14 L325.272325,14 L325.272325,21.120098 L343.464945,21.120098 C347.621402,21.120098 351.002214,24.4224337 351.002214,28.4816897 L351.002214,29.4880334 L332.701107,29.4880334 C326.248708,29.4880334 321,34.6149077 321,40.9175317 L321,42.5697809 C321,48.8724048 326.248708,54 332.701107,54 L360,54 L360,28.4290657 C360,20.4727509 353.373432,14 345.228044,14 L345.228044,14 Z" id="Fill-18" fill="#FFFFFF"></path>
                </g>
            </g>
        </g>
    </g>
</svg>