<?xml version="1.0" encoding="UTF-8"?>
<svg width="559px" height="432px" viewBox="0 0 559 432" version="1.1" xmlns="http://www.w3.org/2000/svg" xmlns:xlink="http://www.w3.org/1999/xlink">
    <!-- Generator: Sketch 64 (93537) - https://sketch.com -->
    <title>logo-twr-after</title>
    <desc>Created with Sketch.</desc>
    <g id="Page-1" stroke="none" stroke-width="1" fill="none" fill-rule="evenodd">
        <g id="The-White-Room" transform="translate(-748.000000, -6698.000000)">
            <g id="logo-twr-after" transform="translate(748.000000, 6698.000000)">
                <g id="logo-twr-After">
                    <g id="dmz-after-copy">
                        <rect id="Rectangle-Copy-9" fill="#323232" x="0" y="0" width="559" height="432"></rect>
                        <text id="After" font-family="Roboto-Regular, Roboto" font-size="18" font-weight="normal" letter-spacing="-0.1755" fill="#FFFFFF">
                            <tspan x="23" y="39">After</tspan>
                        </text>
                    </g>
                </g>
                <g id="Group-15" transform="translate(160.000000, 91.000000)" fill="#E4E4E3">
                    <path d="M0,251 L251,251 L251,0 L0,0 L0,251 Z M4.06467859,246.933256 L246.937354,246.933256 L246.937354,4.06267915 L4.06467859,4.06267915 L4.06467859,246.933256 Z" id="Fill-1"></path>
                    <g id="Group-14" transform="translate(7.000000, 7.000000)">
                        <path d="M172.104785,120.692785 C169.534565,120.692785 167.767539,122.378475 167.767539,126.073167 L167.767539,156.42576 C167.767539,160.120452 169.534565,161.806142 172.104785,161.806142 C174.675006,161.806142 176.437965,160.120452 176.437965,156.42576 L176.437965,126.073167 C176.437965,122.378475 174.675006,120.692785 172.104785,120.692785" id="Fill-2"></path>
                        <path d="M128.104811,173.479904 C128.104811,173.479904 127.620861,179.661446 127.059642,183.114163 L123.125009,205.678826 L133.080545,205.678826 L129.149979,183.114163 C128.584693,179.661446 128.104811,173.479904 128.104811,173.479904" id="Fill-4"></path>
                        <path d="M196.9981,180.787341 C196.9981,175.488295 194.747124,172.757436 190.413944,172.757436 L186.076698,172.757436 L186.076698,195.078091 L190.413944,195.078091 C194.909797,195.078091 196.9981,191.788046 196.9981,187.050219 L196.9981,180.787341 Z" id="Fill-6"></path>
                        <path d="M140.468099,126.07215 L140.468099,156.426777 C140.468099,160.119435 142.235125,161.805126 144.805345,161.805126 C147.373532,161.805126 149.138525,160.119435 149.138525,156.426777 L149.138525,126.07215 C149.138525,122.379492 147.373532,120.691768 144.805345,120.691768 C142.235125,120.691768 140.468099,122.379492 140.468099,126.07215" id="Fill-8"></path>
                        <path d="M223.011414,19.2431008 L214.424356,19.2431008 L214.424356,32.4581811 L222.006913,32.4581811 L222.006913,37.8263626 L214.424356,37.8263626 L214.424356,52.5156594 L223.011414,52.5156594 L223.011414,57.6805007 L208.653561,57.6805007 L208.653561,13.9440549 L223.011414,13.9440549 L223.011414,19.2431008 Z M223.011414,66.5441005 L212.732566,66.5441005 L212.732566,82.3619355 L221.80764,82.3619355 L221.80764,88.7854527 L212.732566,88.7854527 L212.732566,106.372347 L223.011414,106.372347 L223.011414,112.55389 L205.827132,112.55389 L205.827132,60.1998859 L223.011414,60.1998859 L223.011414,66.5441005 Z M223.011414,167.427279 L216.427258,167.427279 L216.427258,133.300692 C216.427258,128.322923 216.90714,122.058011 216.90714,122.058011 L216.748535,122.058011 L209.440488,167.427279 L202.535054,167.427279 L195.227007,122.058011 L195.068402,122.058011 C195.068402,122.058011 195.548285,128.241587 195.548285,133.300692 L195.548285,167.427279 L188.964129,167.427279 L188.964129,115.073275 L199.564254,115.073275 L205.023939,148.073358 C205.668527,151.928688 205.906435,158.272903 205.906435,158.272903 L206.069107,158.272903 C206.069107,158.272903 206.307015,151.928688 206.951604,148.073358 L212.411288,115.073275 L223.011414,115.073275 L223.011414,167.427279 Z M213.293785,222.943223 C207.193579,222.943223 203.818131,218.526674 203.818131,210.978685 L203.818131,208.569104 L206.790965,208.569104 L206.790965,210.818046 C206.790965,216.601042 209.039908,220.133061 213.293785,220.133061 C217.549696,220.133061 220.040613,216.277731 220.040613,210.818046 C220.040613,207.525968 218.674167,203.831277 216.50656,201.344426 L208.71863,192.269352 C206.227713,189.377855 204.222778,186.327752 204.222778,181.349983 C204.222778,173.9606 207.272881,169.304109 213.53576,169.304109 C219.798638,169.304109 222.368859,173.881297 222.368859,181.268647 L222.368859,183.596893 L219.398058,183.596893 L219.398058,181.429286 C219.398058,176.048904 217.793704,172.195607 213.53576,172.195607 C209.11921,172.195607 207.193579,175.967568 207.193579,181.429286 C207.193579,184.721364 208.639328,187.370887 210.806934,189.859771 L218.594864,198.932811 C221.085782,201.824309 223.011414,205.921614 223.011414,210.899383 C223.011414,217.884119 219.477361,222.943223 213.293785,222.943223 L213.293785,222.943223 Z M197.315311,222.300668 C197.156706,221.497474 196.9981,220.533642 196.9981,218.768649 L196.9981,205.921614 C196.9981,201.183787 194.909797,197.889676 190.413944,197.889676 L186.076698,197.889676 L186.076698,222.300668 L183.105897,222.300668 L183.105897,169.946664 L190.57255,169.946664 C196.914731,169.946664 199.968901,173.56002 199.968901,180.626092 L199.968901,187.212281 C199.968901,192.108714 197.717925,195.240153 194.909797,196.44596 C197.717925,197.647701 199.968901,200.459896 199.968901,205.356328 L199.968901,217.965455 C199.968901,219.329868 200.048204,220.854919 200.286112,222.300668 L197.315311,222.300668 Z M172.105192,168.067801 C165.197725,168.067801 160.862512,163.974562 160.862512,156.827154 L160.862512,125.671367 C160.862512,118.523958 165.197725,114.43072 172.105192,114.43072 C179.006559,114.43072 183.343805,118.523958 183.343805,125.671367 L183.343805,156.827154 C183.343805,163.974562 179.006559,168.067801 172.105192,168.067801 L172.105192,168.067801 Z M178.847953,172.756826 L168.168525,172.756826 L168.168525,193.794404 L177.644179,193.794404 L177.644179,196.606599 L168.168525,196.606599 L168.168525,219.40917 L178.847953,219.40917 L178.847953,222.300668 L165.197725,222.300668 L165.197725,169.946664 L178.847953,169.946664 L178.847953,172.756826 Z M158.934847,222.300668 L150.667034,192.830571 L145.284618,204.715807 L145.284618,222.300668 L142.313818,222.300668 L142.313818,169.946664 L145.284618,169.946664 L145.284618,198.613567 L157.975081,169.946664 L161.025184,169.946664 L152.43406,188.897972 L161.989016,222.300668 L158.934847,222.300668 Z M135.971637,222.300668 L133.566122,208.408465 L122.644719,208.408465 L120.233104,222.300668 L117.262304,222.300668 L126.579352,169.946664 L129.629455,169.946664 L139.105109,222.300668 L135.971637,222.300668 Z M113.728251,167.427279 L106.824851,167.427279 L106.824851,115.073275 L117.583581,115.073275 C125.534184,115.073275 128.744926,119.569127 128.744926,126.474561 L128.744926,133.540633 C128.744926,137.153989 126.896563,139.803511 124.407679,141.088622 C127.299177,142.294429 128.744926,145.425868 128.744926,149.439804 L128.744926,161.483645 C128.744926,163.573982 129.066203,165.820891 129.708758,167.427279 L122.644719,167.427279 C122.000131,165.900194 121.837459,164.775723 121.837459,162.207536 L121.837459,149.763115 C121.837459,146.469004 120.475079,144.3807 117.583581,144.3807 L113.728251,144.3807 L113.728251,167.427279 Z M113.606247,172.756826 L102.926819,172.756826 L102.926819,193.794404 L112.402473,193.794404 L112.402473,196.606599 L102.926819,196.606599 L102.926819,219.40917 L113.606247,219.40917 L113.606247,222.300668 L99.9560185,222.300668 L99.9560185,169.946664 L113.606247,169.946664 L113.606247,172.756826 Z M105.137127,60.1998859 L108.429205,93.0413633 C108.831819,96.8153576 109.234432,103.240908 109.234432,103.240908 L109.395071,103.240908 C109.395071,103.240908 109.874954,96.7340215 110.358904,93.0413633 L114.533478,60.1998859 L121.438912,60.1998859 L125.61552,93.0413633 C126.097436,96.8153576 126.577319,103.240908 126.577319,103.240908 L126.737958,103.240908 C126.737958,103.240908 127.140571,96.7340215 127.541151,93.0413633 L130.833229,60.1998859 L137.819999,60.1998859 L131.075204,112.55389 L122.563383,112.55389 L118.950028,83.7263483 C118.468111,79.952354 117.986195,73.5288367 117.986195,73.5288367 L117.825556,73.5288367 C117.825556,73.5288367 117.34364,79.952354 116.861724,83.7263483 L113.329704,112.55389 L104.817883,112.55389 L98.1523909,60.1998859 L105.137127,60.1998859 Z M94.7932106,222.300668 L91.2611912,222.300668 L78.572762,176.370181 C78.572762,176.370181 78.9753757,179.743596 78.9753757,182.714396 L78.9753757,222.300668 L76.0838779,222.300668 L76.0838779,169.946664 L79.6158973,169.946664 L92.3043264,215.635176 C92.3043264,215.635176 91.9017128,212.263795 91.9017128,209.292995 L91.9017128,169.946664 L94.7932106,169.946664 L94.7932106,222.300668 Z M62.4234825,222.943223 C56.3232762,222.943223 52.9478287,218.526674 52.9478287,210.978685 L52.9478287,208.569104 L55.922696,208.569104 L55.922696,210.818046 C55.922696,216.601042 58.1716387,220.133061 62.4234825,220.133061 C66.6814265,220.133061 69.1723441,216.277731 69.1723441,210.818046 C69.1723441,207.525968 67.8058979,203.831277 65.6362579,201.344426 L57.8483278,192.269352 C55.3594436,189.377855 53.3524758,186.327752 53.3524758,181.349983 C53.3524758,173.9606 56.4025789,169.304109 62.6674908,169.304109 C68.9303693,169.304109 71.4985561,173.881297 71.4985561,181.268647 L71.4985561,183.596893 L68.5277557,183.596893 L68.5277557,181.429286 C68.5277557,176.048904 66.9234014,172.195607 62.6674908,172.195607 C58.2509414,172.195607 56.3232762,175.967568 56.3232762,181.429286 C56.3232762,184.721364 57.7690251,187.370887 59.9386652,189.859771 L67.7265952,198.932811 C70.2154794,201.824309 72.1431446,205.921614 72.1431446,210.899383 C72.1431446,217.884119 68.6070583,222.943223 62.4234825,222.943223 L62.4234825,222.943223 Z M156.043349,125.671367 L156.043349,156.827154 C156.043349,163.974562 151.708135,168.067801 144.804735,168.067801 C137.899302,168.067801 133.562055,163.974562 133.562055,156.827154 L133.562055,125.671367 C133.562055,118.523958 137.899302,114.43072 144.804735,114.43072 C151.708135,114.43072 156.043349,118.523958 156.043349,125.671367 L156.043349,125.671367 Z M141.506557,60.1998859 L148.409957,60.1998859 L148.409957,82.1199606 L157.403695,82.1199606 L157.403695,60.1998859 L164.311162,60.1998859 L164.311162,112.55389 L157.403695,112.55389 L157.403695,88.4641752 L148.409957,88.4641752 L148.409957,112.55389 L141.506557,112.55389 L141.506557,60.1998859 Z M169.742379,112.55389 L176.647812,112.55389 L176.647812,60.1998859 L169.742379,60.1998859 L169.742379,112.55389 Z M163.495767,13.9440549 L181.877722,13.9440549 L181.877722,19.2431008 L175.570109,19.2431008 L175.570109,57.6805007 L169.801347,57.6805007 L169.801347,19.2431008 L163.495767,19.2431008 L163.495767,13.9440549 Z M180.171698,66.5441005 L180.171698,60.1998859 L202.173109,60.1998859 L202.173109,66.5441005 L194.627154,66.5441005 L194.627154,112.55389 L187.72172,112.55389 L187.72172,66.5441005 L180.171698,66.5441005 Z M185.135233,13.9440549 L190.901961,13.9440549 L190.901961,32.2568743 L198.415382,32.2568743 L198.415382,13.9440549 L204.186177,13.9440549 L204.186177,57.6805007 L198.415382,57.6805007 L198.415382,37.5559201 L190.901961,37.5559201 L190.901961,57.6805007 L185.135233,57.6805007 L185.135233,13.9440549 Z M0.789031418,236.211172 L236.326131,236.211172 L236.326131,0.676106199 L0.789031418,0.676106199 L0.789031418,236.211172 Z" id="Fill-10"></path>
                        <path d="M121.837662,133.218949 L121.837662,126.795432 C121.837662,123.503354 120.475283,121.41505 117.583785,121.41505 L113.728454,121.41505 L113.728454,138.599331 L117.583785,138.599331 C120.475283,138.599331 121.837662,136.511027 121.837662,133.218949" id="Fill-12"></path>
                    </g>
                </g>
            </g>
        </g>
    </g>
</svg>