<?xml version="1.0" encoding="UTF-8"?>
<svg width="1143px" height="432px" viewBox="0 0 1143 432" version="1.1" xmlns="http://www.w3.org/2000/svg" xmlns:xlink="http://www.w3.org/1999/xlink">
    <!-- Generator: Sketch 64 (93537) - https://sketch.com -->
    <title>logo-dmz-novo</title>
    <desc>Created with Sketch.</desc>
    <defs>
        <polygon id="path-1" points="182.355837 0.00073275769 247.706539 0.00073275769 247.706539 156.078121 182.355837 156.078121"></polygon>
    </defs>
    <g id="Page-1" stroke="none" stroke-width="1" fill="none" fill-rule="evenodd">
        <g id="DMZ-Store" transform="translate(-164.000000, -4918.000000)">
            <g id="logo-dmz-novo" transform="translate(164.000000, 4918.000000)">
                <rect id="Rectangle" fill="#323232" x="0" y="0" width="1143" height="432"></rect>
                <g id="Group" transform="translate(448.000000, 138.000000)">
                    <path d="M46.4392514,34.9497573 C46.4392514,25.1352008 42.3695152,18.911157 33.7537502,18.911157 L20.584629,18.911157 L20.584629,137.645748 L33.7537502,137.645748 C42.3695152,137.645748 46.4392514,131.421704 46.4392514,121.607147 L46.4392514,34.9497573 Z M33.7537502,156.077535 L5.77927776e-13,156.077535 L5.77927776e-13,0.000146551538 L33.7537502,0.000146551538 C57.4525995,0.000146551538 67.0268114,13.4052157 67.0268114,33.9927758 L67.0268114,122.084905 C67.0268114,142.672465 57.4525995,156.077535 33.7537502,156.077535 L33.7537502,156.077535 Z" id="Fill-1" fill="#EBEBEB"></path>
                    <mask id="mask-2" fill="white">
                        <use xlink:href="#path-1"></use>
                    </mask>
                    <g id="Clip-4"></g>
                    <polygon id="Fill-3" fill="#EBEBEB" points="182.355837 156.078121 182.355837 138.362971 224.247595 18.9117432 184.271266 18.9117432 184.271266 0.00073275769 245.553257 0.00073275769 245.553257 18.6713987 203.421155 137.646334 247.707565 137.646334 247.707565 156.078121"></polygon>
                    <polygon id="Fill-6" fill="#EBEBEB" points="158.282109 0 150.992636 0 138.839117 0 119.686296 103.529869 100.533476 0 81.0904832 0 109.965533 156.077388 129.408525 156.077388 150.992636 39.4018465 150.992636 156.077388 170.435628 156.077388 170.435628 0"></polygon>
                    <path d="M81.0907763,74.6260949 L81.0907763,156.077974 L96.9154114,156.077974 L81.8337926,74.5572157 C81.7502583,74.108768 81.0907763,74.1688541 81.0907763,74.6260949" id="Fill-8" fill="#EBEBEB"></path>
                </g>
            </g>
        </g>
    </g>
</svg>