<?xml version="1.0" encoding="UTF-8"?>
<svg width="559px" height="432px" viewBox="0 0 559 432" version="1.1" xmlns="http://www.w3.org/2000/svg" xmlns:xlink="http://www.w3.org/1999/xlink">
    <!-- Generator: Sketch 64 (93537) - https://sketch.com -->
    <title>new-twr-logo</title>
    <desc>Created with Sketch.</desc>
    <g id="Page-1" stroke="none" stroke-width="1" fill="none" fill-rule="evenodd">
        <g id="The-White-Room" transform="translate(-161.000000, -3425.000000)">
            <g id="new-twr-logo" transform="translate(161.000000, 3425.000000)">
                <rect id="Rectangle-Copy-3" fill="#F5F6F6" x="0" y="0" width="559" height="432"></rect>
                <g id="Group-15" transform="translate(124.000000, 61.000000)" fill="#1D1D1B">
                    <path d="M0,310.523 L310.526,310.523 L310.526,0 L0,0 L0,310.523 Z M5.028,305.495 L305.497,305.495 L305.497,5.029 L5.028,5.029 L5.028,305.495 Z" id="Fill-1"></path>
                    <g id="Group-14" transform="translate(9.000000, 9.523000)">
                        <path d="M212.4749,148.5202 C209.2969,148.5202 207.1119,150.6042 207.1119,155.1712 L207.1119,192.7042 C207.1119,197.2702 209.2969,199.3562 212.4749,199.3562 C215.6519,199.3562 217.8339,197.2702 217.8339,192.7042 L217.8339,155.1712 C217.8339,150.6042 215.6519,148.5202 212.4749,148.5202" id="Fill-2"></path>
                        <path d="M158.0677,213.7897 C158.0677,213.7897 157.4707,221.4357 156.7767,225.7047 L151.9127,253.6047 L164.2237,253.6047 L159.3597,225.7047 C158.6647,221.4357 158.0677,213.7897 158.0677,213.7897" id="Fill-4"></path>
                        <path d="M243.2552,222.8259 C243.2552,216.2719 240.4732,212.8959 235.1132,212.8959 L229.7502,212.8959 L229.7502,240.4989 L235.1132,240.4989 C240.6722,240.4989 243.2552,236.4299 243.2552,230.5699 L243.2552,222.8259 Z" id="Fill-6"></path>
                        <path d="M173.3548,155.1716 L173.3548,192.7036 C173.3548,197.2706 175.5408,199.3566 178.7178,199.3566 C181.8948,199.3566 184.0778,197.2706 184.0778,192.7036 L184.0778,155.1716 C184.0778,150.6046 181.8948,148.5206 178.7178,148.5206 C175.5408,148.5206 173.3548,150.6046 173.3548,155.1716" id="Fill-8"></path>
                        <path d="M275.4212,23.0759 L264.8042,23.0759 L264.8042,39.4159 L274.1782,39.4159 L274.1782,46.0529 L264.8042,46.0529 L264.8042,64.2179 L275.4212,64.2179 L275.4212,70.6039 L257.6712,70.6039 L257.6712,16.5229 L275.4212,16.5229 L275.4212,23.0759 Z M275.4212,81.5619 L262.7122,81.5619 L262.7122,101.1219 L273.9332,101.1219 L273.9332,109.0649 L262.7122,109.0649 L262.7122,130.8099 L275.4212,130.8099 L275.4212,138.4549 L254.1742,138.4549 L254.1742,73.7179 L275.4212,73.7179 L275.4212,81.5619 Z M275.4212,206.3059 L267.2782,206.3059 L267.2782,164.1079 C267.2782,157.9519 267.8752,150.2079 267.8752,150.2079 L267.6762,150.2079 L258.6412,206.3059 L250.1032,206.3059 L241.0672,150.2079 L240.8682,150.2079 C240.8682,150.2079 241.4652,157.8529 241.4652,164.1079 L241.4652,206.3059 L233.3232,206.3059 L233.3232,141.5699 L246.4282,141.5699 L253.1802,182.3779 C253.9762,187.1429 254.2732,194.9869 254.2732,194.9869 L254.4712,194.9869 C254.4712,194.9869 254.7692,187.1429 255.5642,182.3779 L262.3142,141.5699 L275.4212,141.5699 L275.4212,206.3059 Z M263.4062,274.9529 C255.8612,274.9529 251.6902,269.4919 251.6902,260.1589 L251.6902,257.1799 L255.3652,257.1799 L255.3652,259.9609 C255.3652,267.1089 258.1452,271.4769 263.4062,271.4769 C268.6682,271.4769 271.7472,266.7119 271.7472,259.9609 C271.7472,255.8889 270.0582,251.3219 267.3792,248.2439 L257.7472,237.0239 C254.6702,233.4489 252.1882,229.6769 252.1882,223.5209 C252.1882,214.3859 255.9592,208.6269 263.7032,208.6269 C271.4502,208.6269 274.6282,214.2859 274.6282,223.4219 L274.6282,226.3009 L270.9522,226.3009 L270.9522,223.6209 C270.9522,216.9679 268.9682,212.2019 263.7032,212.2019 C258.2422,212.2019 255.8612,216.8679 255.8612,223.6209 C255.8612,227.6899 257.6492,230.9669 260.3302,234.0449 L269.9602,245.2639 C273.0392,248.8399 275.4212,253.9039 275.4212,260.0589 C275.4212,268.6979 271.0532,274.9529 263.4062,274.9529 L263.4062,274.9529 Z M243.6512,274.1589 C243.4512,273.1659 243.2552,271.9739 243.2552,269.7909 L243.2552,253.9039 C243.2552,248.0459 240.6722,243.9739 235.1132,243.9739 L229.7502,243.9739 L229.7502,274.1589 L226.0772,274.1589 L226.0772,209.4229 L235.3122,209.4229 C243.1542,209.4229 246.9282,213.8889 246.9282,222.6279 L246.9282,230.7689 C246.9282,236.8259 244.1472,240.6979 240.6722,242.1869 C244.1472,243.6769 246.9282,247.1519 246.9282,253.2079 L246.9282,268.7979 C246.9282,270.4849 247.0262,272.3709 247.3232,274.1589 L243.6512,274.1589 Z M212.4752,207.0999 C203.9352,207.0999 198.5712,202.0359 198.5712,193.1989 L198.5712,154.6759 C198.5712,145.8389 203.9352,140.7739 212.4752,140.7739 C221.0122,140.7739 226.3742,145.8389 226.3742,154.6759 L226.3742,193.1989 C226.3742,202.0359 221.0122,207.0999 212.4752,207.0999 L212.4752,207.0999 Z M220.8162,212.8959 L207.6102,212.8959 L207.6102,238.9099 L219.3272,238.9099 L219.3272,242.3859 L207.6102,242.3859 L207.6102,270.5839 L220.8162,270.5839 L220.8162,274.1589 L203.9372,274.1589 L203.9372,209.4229 L220.8162,209.4229 L220.8162,212.8959 Z M196.1922,274.1589 L185.9662,237.7199 L179.3152,252.4139 L179.3152,274.1589 L175.6412,274.1589 L175.6412,209.4229 L179.3152,209.4229 L179.3152,244.8679 L195.0022,209.4229 L198.7762,209.4229 L188.1512,232.8539 L199.9672,274.1589 L196.1922,274.1589 Z M167.7982,274.1589 L164.8202,256.9819 L151.3162,256.9819 L148.3372,274.1589 L144.6642,274.1589 L156.1822,209.4229 L159.9532,209.4229 L171.6712,274.1589 L167.7982,274.1589 Z M140.2932,206.3059 L131.7562,206.3059 L131.7562,141.5699 L145.0592,141.5699 C154.8912,141.5699 158.8602,147.1289 158.8602,155.6689 L158.8602,164.4059 C158.8602,168.8739 156.5772,172.1499 153.4982,173.7389 C157.0732,175.2279 158.8602,179.0999 158.8602,184.0649 L158.8602,198.9589 C158.8602,201.5409 159.2592,204.3199 160.0522,206.3059 L151.3162,206.3059 C150.5202,204.4199 150.3212,203.0289 150.3212,199.8519 L150.3212,184.4629 C150.3212,180.3919 148.6342,177.8099 145.0592,177.8099 L140.2932,177.8099 L140.2932,206.3059 Z M140.1422,212.8959 L126.9372,212.8959 L126.9372,238.9099 L138.6532,238.9099 L138.6532,242.3859 L126.9372,242.3859 L126.9372,270.5839 L140.1422,270.5839 L140.1422,274.1589 L123.2642,274.1589 L123.2642,209.4229 L140.1422,209.4229 L140.1422,212.8959 Z M129.6702,73.7179 L133.7412,114.3269 C134.2362,118.9949 134.7352,126.9379 134.7352,126.9379 L134.9352,126.9379 C134.9352,126.9379 135.5282,118.8949 136.1252,114.3269 L141.2892,73.7179 L149.8262,73.7179 L154.9902,114.3269 C155.5872,118.9949 156.1812,126.9379 156.1812,126.9379 L156.3802,126.9379 C156.3802,126.9379 156.8762,118.8949 157.3712,114.3269 L161.4422,73.7179 L170.0812,73.7179 L161.7422,138.4549 L151.2162,138.4549 L146.7492,102.8099 C146.1522,98.1439 145.5572,90.2009 145.5572,90.2009 L145.3592,90.2009 C145.3592,90.2009 144.7632,98.1439 144.1662,102.8099 L139.7982,138.4549 L129.2752,138.4549 L121.0312,73.7179 L129.6702,73.7179 Z M116.8792,274.1589 L112.5112,274.1589 L96.8212,217.3649 C96.8212,217.3649 97.3192,221.5349 97.3192,225.2089 L97.3192,274.1589 L93.7442,274.1589 L93.7442,209.4229 L98.1122,209.4229 L113.8002,265.9169 C113.8002,265.9169 113.3042,261.7479 113.3042,258.0729 L113.3042,209.4229 L116.8792,209.4229 L116.8792,274.1589 Z M76.8562,274.9529 C69.3112,274.9529 65.1392,269.4919 65.1392,260.1589 L65.1392,257.1799 L68.8152,257.1799 L68.8152,259.9609 C68.8152,267.1089 71.5942,271.4769 76.8562,271.4769 C82.1172,271.4769 85.1962,266.7119 85.1962,259.9609 C85.1962,255.8889 83.5072,251.3219 80.8282,248.2439 L71.1962,237.0239 C68.1192,233.4489 65.6372,229.6769 65.6372,223.5209 C65.6372,214.3859 69.4082,208.6269 77.1522,208.6269 C84.9002,208.6269 88.0772,214.2859 88.0772,223.4219 L88.0772,226.3009 L84.4012,226.3009 L84.4012,223.6209 C84.4012,216.9679 82.4172,212.2019 77.1522,212.2019 C71.6922,212.2019 69.3112,216.8679 69.3112,223.6209 C69.3112,227.6899 71.0982,230.9669 73.7792,234.0449 L83.4092,245.2639 C86.4882,248.8399 88.8702,253.9039 88.8702,260.0589 C88.8702,268.6979 84.5022,274.9529 76.8562,274.9529 L76.8562,274.9529 Z M192.6172,154.6759 L192.6172,193.1989 C192.6172,202.0359 187.2552,207.0999 178.7182,207.0999 C170.1782,207.0999 164.8162,202.0359 164.8162,193.1989 L164.8162,154.6759 C164.8162,145.8389 170.1782,140.7739 178.7182,140.7739 C187.2552,140.7739 192.6172,145.8389 192.6172,154.6759 L192.6172,154.6759 Z M174.6412,73.7179 L183.1782,73.7179 L183.1782,100.8239 L194.2982,100.8239 L194.2982,73.7179 L202.8382,73.7179 L202.8382,138.4549 L194.2982,138.4549 L194.2982,108.6679 L183.1782,108.6679 L183.1782,138.4549 L174.6412,138.4549 L174.6412,73.7179 Z M209.5552,138.4549 L218.0922,138.4549 L218.0922,73.7179 L209.5552,73.7179 L209.5552,138.4549 Z M201.8312,16.5229 L224.5582,16.5229 L224.5582,23.0759 L216.7602,23.0759 L216.7602,70.6039 L209.6272,70.6039 L209.6272,23.0759 L201.8312,23.0759 L201.8312,16.5229 Z M222.4502,81.5619 L222.4502,73.7179 L249.6562,73.7179 L249.6562,81.5619 L240.3232,81.5619 L240.3232,138.4549 L231.7862,138.4549 L231.7862,81.5619 L222.4502,81.5619 Z M228.5862,16.5229 L235.7202,16.5229 L235.7202,39.1679 L245.0112,39.1679 L245.0112,16.5229 L252.1442,16.5229 L252.1442,70.6039 L245.0112,70.6039 L245.0112,45.7209 L235.7202,45.7209 L235.7202,70.6039 L228.5862,70.6039 L228.5862,16.5229 Z M0.6432,291.3579 L291.8852,291.3579 L291.8852,0.1169 L0.6432,0.1169 L0.6432,291.3579 Z" id="Fill-10"></path>
                        <path d="M150.3216,164.0085 L150.3216,156.0655 C150.3216,151.9935 148.6346,149.4135 145.0586,149.4135 L140.2936,149.4135 L140.2936,170.6605 L145.0586,170.6605 C148.6346,170.6605 150.3216,168.0795 150.3216,164.0085" id="Fill-12"></path>
                    </g>
                </g>
            </g>
        </g>
    </g>
</svg>